# Blender 4.1.1
# www.blender.org
mtllib Weapon2.mtl
o Cube
v 6.892526 -0.352912 -0.453927
v 6.892526 -0.417568 -0.453927
v 6.892526 -0.352912 -0.237736
v 6.892526 -0.417568 -0.237736
v -6.892526 -0.417177 -0.096969
v -6.892526 -0.417568 -0.096969
v -6.892526 -0.417177 -0.099244
v -6.892526 -0.417568 -0.099244
vn -0.0047 1.0000 -0.0000
vn 0.0100 -0.0000 0.9999
vn 1.0000 -0.0000 -0.0000
vn -0.0000 -1.0000 -0.0000
vn -0.0259 -0.0000 -0.9997
vt 0.625000 0.500000
vt 0.875000 0.500000
vt 0.875000 0.750000
vt 0.625000 0.750000
vt 0.375000 0.750000
vt 0.625000 1.000000
vt 0.375000 1.000000
vt 0.375000 0.000000
vt 0.625000 0.000000
vt 0.625000 0.250000
vt 0.375000 0.250000
vt 0.125000 0.500000
vt 0.375000 0.500000
vt 0.125000 0.750000
s 0
usemtl Material
f 1/1/1 5/2/1 7/3/1 3/4/1
f 4/5/2 3/4/2 7/6/2 8/7/2
f 8/8/3 7/9/3 5/10/3 6/11/3
f 6/12/4 2/13/4 4/5/4 8/14/4
f 2/13/3 1/1/3 3/4/3 4/5/3
f 6/11/5 5/10/5 1/1/5 2/13/5
o Cube.001
v 6.873906 -0.418232 -0.308518
v 6.873906 -0.352929 -0.308518
v 6.873906 -0.418232 -0.381420
v 6.873906 -0.352929 -0.381420
v 7.776395 -0.418232 -0.308518
v 7.776395 -0.352929 -0.308518
v 7.776395 -0.418232 -0.381420
v 7.776395 -0.352929 -0.381420
vn -1.0000 -0.0000 -0.0000
vn -0.0000 -0.0000 -1.0000
vn 1.0000 -0.0000 -0.0000
vn -0.0000 -0.0000 1.0000
vn -0.0000 -1.0000 -0.0000
vn -0.0000 1.0000 -0.0000
vt 0.375000 0.000000
vt 0.625000 0.000000
vt 0.625000 0.250000
vt 0.375000 0.250000
vt 0.625000 0.500000
vt 0.375000 0.500000
vt 0.625000 0.750000
vt 0.375000 0.750000
vt 0.625000 1.000000
vt 0.375000 1.000000
vt 0.125000 0.500000
vt 0.125000 0.750000
vt 0.875000 0.500000
vt 0.875000 0.750000
s 0
f 9/15/6 10/16/6 12/17/6 11/18/6
f 11/18/7 12/17/7 16/19/7 15/20/7
f 15/20/8 16/19/8 14/21/8 13/22/8
f 13/22/9 14/21/9 10/23/9 9/24/9
f 11/25/10 15/20/10 13/22/10 9/26/10
f 16/19/11 12/27/11 10/28/11 14/21/11
